<svg width="375" height="252" viewBox="0 0 375 252" fill="none" xmlns="http://www.w3.org/2000/svg">
<path fill-rule="evenodd" clip-rule="evenodd" d="M0 180L22 162C44 144 89 108 133 114C178 120 222 168 267 180C311 192 356 168 400 174C444 180 489 216 533 186C578 156 622 60 667 42C711 24 756 84 800 120C844 156 889 168 933 174C978 180 1022 180 1067 150C1111 120 1156 60 1178 30L1200 0V252H1178C1156 252 1111 252 1067 252C1022 252 978 252 933 252C889 252 844 252 800 252C756 252 711 252 667 252C622 252 578 252 533 252C489 252 444 252 400 252C356 252 311 252 267 252C222 252 178 252 133 252C89 252 44 252 22 252H0V180Z" fill="#FFDD2D" fill-opacity="0.46"/>
</svg>
