<svg width="375" height="451" viewBox="0 0 375 451" fill="none" xmlns="http://www.w3.org/2000/svg">
<path fill-rule="evenodd" clip-rule="evenodd" d="M-906 0H-879.312C-852.625 0 -799.25 0 -745.875 0C-692.5 0 -639.125 0 -585.75 18.7917C-532.375 37.5833 -479 75.1667 -425.625 150.333C-372.25 225.5 -318.875 338.25 -265.5 375.833C-212.125 413.417 -158.75 375.833 -105.375 291.271C-52 206.708 1.375 75.1667 54.75 46.9792C108.125 18.7917 161.5 93.9583 214.875 122.146C268.25 150.333 321.625 131.542 348.312 122.146L375 112.75V451H348.312C321.625 451 268.25 451 214.875 451C161.5 451 108.125 451 54.75 451C1.375 451 -52 451 -105.375 451C-158.75 451 -212.125 451 -265.5 451C-318.875 451 -372.25 451 -425.625 451C-479 451 -532.375 451 -585.75 451C-639.125 451 -692.5 451 -745.875 451C-799.25 451 -852.625 451 -879.312 451H-906V0Z" fill="#1A4881"/>
</svg>
